<svg width="260" height="24" viewBox="0 0 260 24" fill="none" xmlns="http://www.w3.org/2000/svg">
<path fill-rule="evenodd" clip-rule="evenodd" d="M0.605108 0.335135H8.587C15.087 0.335135 20.4077 5.56919 20.4077 11.9689C20.4077 18.4329 15.087 23.667 8.587 23.667H0.605108C0.268395 23.667 0 23.3675 0 23.0359L0 0.969467C0 0.634592 0.268395 0.335135 0.605108 0.335135ZM4.3431 19.6002H8.18358C12.5609 19.6002 15.7604 16.3336 15.7604 11.9689C15.7604 7.63324 12.5609 4.36658 8.18358 4.36658H4.3431L4.3431 19.6002Z" fill="#27323E"/>
<path d="M30.6165 0.335501H27.4852C27.1485 0.335501 26.8459 0.634958 26.8459 0.969834L26.8459 23.0362C26.8459 23.3679 27.1485 23.6674 27.4852 23.6674H30.6165C30.9548 23.6674 31.2574 23.3679 31.2574 23.0362L31.2574 0.969834C31.2574 0.634958 30.9548 0.335501 30.6165 0.335501" fill="#27323E"/>
<path d="M61.0873 0.500705C61.0547 0.235058 60.8514 7.05897e-07 60.4822 7.05897e-07H59.9421C59.6396 7.05897e-07 59.472 0.13363 59.3696 0.334877L51.9619 16.0692H51.861L44.4517 0.334877C44.3492 0.13363 44.1491 7.05897e-07 43.8791 7.05897e-07H43.3391C42.9698 7.05897e-07 42.7665 0.235058 42.734 0.500705L38.7259 22.902C38.6593 23.3673 38.9276 23.6683 39.3652 23.6683H42.3973C42.6998 23.6683 42.9698 23.4011 43.004 23.166L44.956 10.5357H45.0568L51.0184 23.6345C51.1209 23.8326 51.2884 24 51.591 24H52.1977C52.5003 24 52.7036 23.8326 52.7703 23.6345L58.6636 10.5357H58.7644L60.7522 23.166C60.8189 23.4011 61.0873 23.6683 61.3915 23.6683H64.4544C64.892 23.6683 65.162 23.3673 65.0628 22.902L61.0873 0.500705Z" fill="#27323E"/>
<path fill-rule="evenodd" clip-rule="evenodd" d="M82.185 0.00111198C82.5233 0.00111198 82.6583 0.168552 82.7575 0.366579L93.1322 22.8017C93.3339 23.2332 93.0639 23.6678 92.558 23.6678H89.6284C89.1226 23.6678 88.8883 23.4682 88.6508 22.9997L86.9998 19.4014L86.0206 17.2022C81.8011 17.7705 77.9574 19.894 75.249 23.2509L75.1758 23.1945C75.0115 23.4521 74.7366 23.6678 74.3056 23.6678H71.376C70.8701 23.6678 70.6001 23.2332 70.8034 22.8017L81.2773 0.366579C81.3765 0.168552 81.5457 0.00111198 81.8483 0.00111198H82.185ZM81.9833 8.36653H81.8824L78.839 15.1268C80.5404 14.2719 82.3558 13.6585 84.2459 13.2931L81.9833 8.36653Z" fill="#27323E"/>
<path d="M128.768 0.500705C128.736 0.235058 128.532 7.05897e-07 128.163 7.05897e-07H127.623C127.321 7.05897e-07 127.153 0.13363 127.051 0.334877L119.643 16.0692H119.542L112.133 0.334877C112.03 0.13363 111.83 7.05897e-07 111.56 7.05897e-07H111.02C110.651 7.05897e-07 110.448 0.235058 110.415 0.500705L106.407 22.902C106.34 23.3673 106.609 23.6683 107.046 23.6683H110.078C110.381 23.6683 110.651 23.4011 110.685 23.166L112.637 10.5357H112.74L118.699 23.6345C118.802 23.8326 118.97 24 119.272 24H119.879C120.181 24 120.385 23.8326 120.451 23.6345L126.345 10.5357H126.446L128.432 23.166C128.5 23.4011 128.768 23.6683 129.073 23.6683H132.135C132.573 23.6683 132.843 23.3673 132.744 22.902L128.768 0.500705Z" fill="#27323E"/>
<path fill-rule="evenodd" clip-rule="evenodd" d="M149.444 0.00111198C149.781 0.00111198 149.916 0.168552 150.015 0.366579L160.39 22.8017C160.592 23.2332 160.322 23.6678 159.816 23.6678H156.888C156.382 23.6678 156.148 23.4682 155.908 22.9997L154.259 19.4014L153.294 17.236C149.15 17.8413 145.381 19.9456 142.713 23.2509L142.497 23.0802C142.347 23.3845 142.058 23.6678 141.565 23.6678H138.634C138.128 23.6678 137.859 23.2332 138.061 22.8017L148.535 0.366579C148.634 0.168552 148.805 0.00111198 149.108 0.00111198H149.444ZM149.243 8.36653H149.14L146.03 15.2782C147.753 14.3782 149.592 13.7165 151.52 13.3237L149.243 8.36653Z" fill="#27323E"/>
<path fill-rule="evenodd" clip-rule="evenodd" d="M177.194 0.336231C181.234 0.336231 184.535 3.53366 184.535 7.50065C184.535 10.5677 182.48 13.0664 179.551 14.2352L184.166 22.7005C184.4 23.1336 184.166 23.6681 183.591 23.6681L180.055 23.6681C179.753 23.6681 179.583 23.5007 179.517 23.367L175.039 14.5347L171.299 14.5347V23.0354C171.299 23.367 170.996 23.6681 170.66 23.6681H167.563C167.19 23.6681 166.922 23.367 166.922 23.0354V0.968956C166.922 0.634079 167.19 0.336231 167.563 0.336231H177.194ZM171.333 10.9686L176.821 10.9686C178.607 10.9686 180.158 9.43431 180.158 7.56995C180.158 5.80058 178.607 4.33388 176.821 4.33388H171.333V10.9686Z" fill="#27323E"/>
<path d="M201.939 11.3334L210.728 1.53506C211.167 1.03597 210.83 0.335623 210.191 0.335623L206.822 0.335623C206.519 0.335623 206.316 0.499842 206.183 0.66889L197.697 10.1356V1.13417C197.697 0.701089 197.326 0.335623 196.888 0.335623H193.924C193.453 0.335623 193.118 0.701089 193.118 1.13417V22.8657C193.118 23.3004 193.453 23.6675 193.924 23.6675H196.888C197.326 23.6675 197.697 23.3004 197.697 22.8657V12.7019L206.487 23.434C206.554 23.5339 206.757 23.6675 207.092 23.6675L210.765 23.6675C211.435 23.6675 211.705 22.9349 211.37 22.5019L201.939 11.3334Z" fill="#27323E"/>
<path d="M236.451 0.33551H233.253C232.882 0.33551 232.612 0.634967 232.612 0.969843V14.6338C232.612 17.4335 230.627 19.6682 227.695 19.6682C224.765 19.6682 222.811 17.4335 222.811 14.5999V0.969843C222.811 0.634967 222.541 0.33551 222.174 0.33551H218.971C218.636 0.33551 218.333 0.634967 218.333 0.969843V14.835C218.333 19.9016 222.406 23.999 227.695 23.999C233.017 23.999 237.093 19.9016 237.093 14.835V0.969843C237.093 0.634967 236.786 0.33551 236.451 0.33551" fill="#27323E"/>
<path d="M252.963 9.86809C250.234 8.76686 248.991 7.70106 248.991 6.13615C248.991 5.06874 250.034 3.80007 251.953 3.80007C253.806 3.80007 256.364 5.46801 256.635 5.63384C257.04 5.9011 257.542 5.63384 257.812 5.23295L259.094 3.33478C259.33 3.00152 259.229 2.43641 258.892 2.23356C258.217 1.73607 255.592 0.000511628 252.156 0.000511628C246.8 0.000511628 244.578 3.43621 244.578 6.40341C244.578 10.3334 247.743 12.333 250.909 13.6C253.739 14.7335 255.187 15.8991 255.187 17.6008C255.187 19.0321 253.874 20.1655 252.122 20.1655C249.933 20.1655 247.203 18.203 247.036 18.1015C246.733 17.8681 246.161 17.8681 245.891 18.3366L244.68 20.4006C244.378 20.9351 244.545 21.1009 244.848 21.4004C245.523 22.0363 248.013 23.9989 252.254 23.9989C257.005 23.9989 260 20.8353 260 17.4012C260 13.1025 256.231 11.1673 252.963 9.86809" fill="#27323E"/>
</svg>
