<svg width="24" height="25" viewBox="0 0 24 25" fill="none" xmlns="http://www.w3.org/2000/svg">
<path d="M16.945 6L16.293 6.79479C17.87 8.31771 18.863 10.4865 18.863 12.8969C18.863 15.3073 17.869 17.476 16.293 18.999L16.944 19.7938C17.8641 18.9187 18.5991 17.8534 19.102 16.666C19.6048 15.4786 19.8646 14.195 19.8647 12.8971C19.8648 11.5992 19.6052 10.3156 19.1025 9.12809C18.5998 7.94057 17.865 6.87522 16.945 6V6ZM14.673 8.77083L14.022 9.56563C14.4467 10.0004 14.784 10.519 15.0143 11.0911C15.2445 11.6632 15.363 12.2773 15.3629 12.8976C15.3628 13.5179 15.2441 14.132 15.0137 14.704C14.7833 15.276 14.4458 15.7945 14.021 16.2292L14.672 17.024C15.712 15.9823 16.363 14.5198 16.363 12.8979C16.363 11.276 15.713 9.8125 14.673 8.77083V8.77083ZM4 9.77188V16.0219H6.804L12 19.1469V6.64688L6.804 9.77188H4ZM11 8.45104V17.3427L7.072 14.9802H5V10.8135H7.072L11 8.45104Z" fill="white"/>
</svg>
