<svg width="1118" height="335" viewBox="0 0 1118 335" fill="none" xmlns="http://www.w3.org/2000/svg">
<path fill-rule="evenodd" clip-rule="evenodd" d="M168 335C76 335 0 259 0 167C0 75 76 0 168 0C260 0 336 75 336 167C336 259 260 335 168 335ZM83 228C141 215 191 221 230 245C241 251 252 234 241 227C197 200 143 193 79 208C67 210 69 230 83 228ZM80 180C133 164 202 172 247 200C261 209 275 187 261 178C209 146 134 137 73 155C57 159 63 185 80 180ZM63 99C44 106 55 135 72 129C123 113 213 116 267 148C285 158 301 130 284 121C222 84 122 81 63 99ZM397.252 104H411.52V22.8H397.252V104ZM422.469 55.628C434.184 54.7 440.333 49.248 440.333 36.372V22.8H424.904V38.692H430.82C431.4 44.724 428.036 48.32 420.96 49.596L422.469 55.628ZM471.461 105.276C481.437 105.276 487.817 100.172 492.341 93.792V104H506.377V19.32H492.341V52.264C487.933 46.58 481.553 41.476 471.461 41.476C456.845 41.476 443.041 52.96 443.041 73.26V73.492C443.041 93.792 457.077 105.276 471.461 105.276ZM474.825 93.096C465.313 93.096 457.193 85.324 457.193 73.492V73.26C457.193 61.08 465.197 53.656 474.825 53.656C484.221 53.656 492.573 61.428 492.573 73.26V73.492C492.573 85.208 484.221 93.096 474.825 93.096ZM546.713 104H560.75V19.32H546.713V104ZM601.829 105.392C620.737 105.392 634.657 90.892 634.657 73.492V73.26C634.657 55.744 620.853 41.476 602.061 41.476C583.269 41.476 569.349 55.976 569.349 73.492V73.724C569.349 91.124 583.153 105.392 601.829 105.392ZM602.061 93.212C591.157 93.212 583.385 84.164 583.385 73.492V73.26C583.385 62.588 590.577 53.772 601.829 53.772C612.849 53.772 620.621 62.704 620.621 73.492V73.724C620.621 84.28 613.429 93.212 602.061 93.212ZM658.431 104.464H671.075L696.131 42.752H681.399L664.812 87.76L648.339 42.752H633.26L658.431 104.464ZM726.228 105.392C737.48 105.392 745.484 100.868 751.284 93.908L743.048 86.6C738.176 91.356 733.304 93.908 726.46 93.908C717.412 93.908 710.336 88.34 708.828 78.364H753.836L753.863 78.0446C753.969 76.7756 754.068 75.5978 754.068 74.42C754.068 56.788 744.208 41.476 724.72 41.476C707.204 41.476 694.792 55.86 694.792 73.376V73.608C694.792 92.516 708.48 105.392 726.228 105.392ZM708.712 69.084C709.988 59.572 716.02 52.96 724.604 52.96C733.884 52.96 739.22 60.036 740.148 69.084H708.712ZM810.713 105.044C815.933 105.044 819.877 103.884 823.357 101.912V90.428C820.573 91.82 817.789 92.516 814.657 92.516C809.901 92.516 807.117 90.312 807.117 84.86V54.816H823.589V42.752H807.117V25.932H793.081V42.752H785.309V54.816H793.081V87.064C793.081 100.52 800.389 105.044 810.713 105.044ZM858.796 105.392C877.704 105.392 891.624 90.892 891.624 73.492V73.26C891.624 55.744 877.82 41.476 859.028 41.476C840.236 41.476 826.316 55.976 826.316 73.492V73.724C826.316 91.124 840.12 105.392 858.796 105.392ZM859.028 93.212C848.124 93.212 840.352 84.164 840.352 73.492V73.26C840.352 62.588 847.544 53.772 858.796 53.772C869.816 53.772 877.588 62.704 877.588 73.492V73.724C877.588 84.28 870.396 93.212 859.028 93.212ZM928.168 33.356H943.248V20.016H928.168V33.356ZM924.92 122.908C936.404 122.908 942.784 117.224 942.784 104.812V42.752H928.748V104C928.748 109.336 926.08 111.424 922.136 111.424C920.86 111.424 919.584 111.308 918.192 111.076V122.328C920.396 122.676 922.252 122.908 924.92 122.908ZM983.863 105.392C1002.77 105.392 1016.69 90.892 1016.69 73.492V73.26C1016.69 55.744 1002.89 41.476 984.095 41.476C965.303 41.476 951.383 55.976 951.383 73.492V73.724C951.383 91.124 965.187 105.392 983.863 105.392ZM984.095 93.212C973.191 93.212 965.419 84.164 965.419 73.492V73.26C965.419 62.588 972.611 53.772 983.863 53.772C994.883 53.772 1002.66 62.704 1002.66 73.492V73.724C1002.66 84.28 995.463 93.212 984.095 93.212ZM1024.84 33.356H1039.92V20.016H1024.84V33.356ZM1025.42 104H1039.45V42.752H1025.42V104ZM1051.42 104H1065.45V69.432C1065.45 59.92 1071.14 54.236 1079.26 54.236C1087.61 54.236 1092.36 59.688 1092.36 69.2V104H1106.4V65.024C1106.4 50.756 1098.4 41.476 1084.59 41.476C1075.08 41.476 1069.4 46.464 1065.45 52.264V42.752H1051.42V104ZM450.75 275C433.75 275 417.75 269 403.75 255C402.75 255 402.75 256 402.75 256L386.75 275C385.75 276 385.75 277 386.75 278C404.75 294 426.75 302 450.75 302C484.75 302 505.75 283 505.75 255C505.75 231 490.75 218 455.75 209C426.75 202 421.75 197 421.75 187C421.75 177 431.75 171 444.75 171C457.75 171 469.75 176 483.75 186C483.75 186 484.75 187 485.75 187C486.75 187 486.75 186 486.75 186L500.75 166C501.25 165.5 501.5 165.25 501.5 165C501.5 164.75 501.25 164.5 500.75 164C484.75 151 465.75 144 444.75 144C413.75 144 391.75 163 391.75 190C391.75 219 411.75 228 443.75 236C471.75 242 475.75 248 475.75 258C475.75 269 465.75 275 450.75 275ZM545.75 198V185C545.75 184 544.75 183 543.75 183H517.75C516.75 183 515.75 184 515.75 185V332C515.75 333 516.75 334 517.75 334H543.75C544.75 334 545.75 333 545.75 332V286C555.75 297 566.75 302 581.75 302C608.75 302 635.75 281 635.75 241C635.75 201 608.75 181 581.75 181C566.75 181 555.75 186 545.75 198ZM575.75 276C557.75 276 544.75 261 544.75 241C544.75 221 557.75 207 575.75 207C593.75 207 605.75 221 605.75 241C605.75 261 593.75 276 575.75 276ZM643.75 242C643.75 276 670.75 302 705.75 302C740.75 302 767.75 275 767.75 241C767.75 207 741.75 181 706.75 181C671.75 181 643.75 208 643.75 242ZM673.75 241C673.75 221 686.75 207 705.75 207C724.75 207 738.75 222 738.75 242C738.75 262 725.75 276 706.75 276C687.75 276 673.75 261 673.75 241ZM813.75 183V154C813.75 153 813.75 152 812.75 152H786.75C785.75 152 784.75 153 784.75 154V183H771.75C770.75 183 769.75 184 769.75 185V207C769.75 208 770.75 209 771.75 209H784.75V267C784.75 290 795.75 302 818.75 302C827.75 302 836.75 300 843.75 296C844.75 296 844.75 295 844.75 294V273C844.75 272 844.75 271 843.75 271H841.75C836.75 274 830.75 275 825.75 275C817.75 275 813.75 271 813.75 263V209H843.75C844.75 209 845.75 208 845.75 207V185C845.75 184 844.75 183 843.75 183H813.75ZM942.75 180C942.75 169 946.75 165 955.75 165C960.75 165 965.75 165 970.75 167H971.75C971.75 167 972.75 166 972.75 165V144C972.75 143 972.75 142 971.75 142C966.75 140 959.75 139 949.75 139C925.75 139 913.75 153 913.75 178V183H900.75C899.75 183 898.75 184 898.75 185V207C898.75 208 899.75 209 900.75 209H913.75V298C913.75 299 914.75 300 915.75 300H941.75C942.75 300 942.75 299 942.75 298V209H967.75L1004.75 298C1000.75 307 996.75 309 990.75 309C985.75 309 980.75 308 975.75 305H974.75L973.75 306L964.75 325C964.75 326 964.75 328 965.75 328C974.75 333 982.75 335 992.75 335C1011.75 335 1022.75 326 1031.75 302L1076.75 186V184C1076.75 183 1075.75 183 1074.75 183H1047.75C1046.75 183 1046.75 184 1046.75 185L1018.75 263L988.75 185C988.75 184 987.75 183 986.75 183H942.75V180ZM859.75 183C858.75 183 857.75 184 857.75 185V298C857.75 299 858.75 300 859.75 300H885.75C886.75 300 886.75 299 886.75 298V185C886.75 184 886.75 183 885.75 183H859.75ZM853.75 150C853.75 160 862.75 169 872.75 169C882.75 169 890.75 160 890.75 150C890.75 140 882.75 132 872.75 132C862.75 132 853.75 140 853.75 150ZM1098.75 219C1108.75 219 1117.75 211 1117.75 201C1117.75 191 1108.75 183 1098.75 183C1088.75 183 1080.75 191 1080.75 201C1080.75 211 1088.75 219 1098.75 219ZM1098.75 185C1107.75 185 1115.75 192 1115.75 201C1115.75 210 1107.75 217 1098.75 217C1089.75 217 1082.75 210 1082.75 201C1082.75 192 1089.75 185 1098.75 185ZM1102.75 203C1105.75 202 1107.75 200 1107.75 197C1107.75 193 1103.75 191 1099.75 191H1091.75V210H1095.75V204H1099.75L1103.75 210H1108.75L1102.75 203ZM1099.75 194C1101.75 194 1103.75 195 1103.75 197C1103.75 199 1101.75 200 1099.75 200H1095.75V194H1099.75Z" fill="white"/>
<path d="M107.806 262.927C136.65 257.483 172.777 261.346 196.979 273.589" stroke="#FF5123" stroke-width="20" stroke-linecap="round"/>
</svg>
