<svg width="24" height="24" viewBox="0 0 24 24" fill="none" xmlns="http://www.w3.org/2000/svg">
<path d="M20.2173 0H3.52188C3.2089 0 3 0.208535 3 0.521882V23.4781C3 23.7911 3.20853 24 3.52188 24H20.2173C20.5303 24 20.7392 23.7915 20.7392 23.4781V0.521882C20.7392 0.208899 20.5307 0 20.2177 0H20.2173ZM19.6954 22.9562H4.04347V1.04346H19.6954V22.9562ZM6.65213 10.4347H11.8695C12.1824 10.4347 12.3913 10.2261 12.3913 9.91277C12.3913 8.8694 11.7654 7.98245 10.8785 7.56507C11.1394 7.19968 11.348 6.78262 11.348 6.26074C11.348 5.11292 10.409 4.17399 9.26123 4.17399C8.11342 4.17399 7.17449 5.11292 7.17449 6.26074C7.17449 6.73021 7.33098 7.19967 7.64396 7.56507C6.7567 7.9825 6.13038 8.8694 6.13038 9.91314C6.13038 10.2261 6.33927 10.4347 6.65226 10.4347L6.65213 10.4347ZM9.26079 5.21733C9.83472 5.21733 10.3042 5.6868 10.3042 6.2607C10.3042 6.83462 9.83469 7.30407 9.26079 7.30407C8.6869 7.30407 8.21742 6.8346 8.21742 6.2607C8.21742 5.68677 8.6869 5.21733 9.26079 5.21733ZM8.73891 8.34791H9.78228C10.4606 8.34791 11.0345 8.76534 11.2431 9.39128H7.2257C7.487 8.76531 8.06092 8.34791 8.73891 8.34791V8.34791ZM6.13025 15.1305C6.13025 14.8175 6.33878 14.6086 6.65213 14.6086H17.0868C17.3998 14.6086 17.6087 14.8172 17.6087 15.1305C17.6087 15.4435 17.4001 15.6524 17.0868 15.6524L6.65213 15.652C6.33915 15.652 6.13025 15.4435 6.13025 15.1305V15.1305ZM6.13025 13.0434C6.13025 12.7304 6.33878 12.5215 6.65213 12.5215H17.0868C17.3998 12.5215 17.6087 12.7301 17.6087 13.0434C17.6087 13.3564 17.4001 13.5653 17.0868 13.5653H6.65213C6.33915 13.5653 6.13025 13.3564 6.13025 13.0434ZM6.13025 17.2174C6.13025 16.9044 6.33878 16.6955 6.65213 16.6955H17.0868C17.3998 16.6955 17.6087 16.904 17.6087 17.2174C17.6087 17.5303 17.4001 17.7392 17.0868 17.7392H6.65213C6.33915 17.7392 6.13025 17.5303 6.13025 17.2174ZM6.13025 19.3041C6.13025 18.9911 6.33878 18.7822 6.65213 18.7822H15.1041C15.4171 18.7822 15.626 18.9908 15.626 19.3041C15.626 19.6171 15.4175 19.826 15.1041 19.826H6.65213C6.33915 19.826 6.13025 19.6175 6.13025 19.3041ZM13.4347 5.21733C13.4347 4.90434 13.6432 4.69545 13.9566 4.69545H17.0872C17.4001 4.69545 17.609 4.90398 17.609 5.21733C17.609 5.53031 17.4005 5.73921 17.0872 5.73921H13.9566C13.6432 5.73921 13.4347 5.53031 13.4347 5.21733ZM13.4347 7.30444C13.4347 6.99146 13.6432 6.78256 13.9566 6.78256H17.0872C17.4001 6.78256 17.609 6.9911 17.609 7.30444C17.609 7.61743 17.4005 7.82632 17.0872 7.82632H13.9566C13.6432 7.82596 13.4347 7.61743 13.4347 7.30444ZM13.4347 9.39119C13.4347 9.0782 13.6432 8.86931 13.9566 8.86931H17.0872C17.4001 8.86931 17.609 9.07784 17.609 9.39119C17.609 9.70417 17.4005 9.91307 17.0872 9.91307H13.9566C13.6432 9.91307 13.4347 9.70417 13.4347 9.39119Z" fill="white"/>
</svg>
