<svg width="19" height="22" viewBox="0 0 19 22" fill="none" xmlns="http://www.w3.org/2000/svg">
<path fill-rule="evenodd" clip-rule="evenodd" d="M14.3928 15.3096L18.7856 20.4643L18.0237 21.1191L13.6189 15.9643C12.1031 17.1151 10.3967 17.6905 8.49986 17.6905C7.34905 17.6905 6.24786 17.4663 5.1963 17.0179C4.14474 16.5695 3.23997 15.9663 2.482 15.2084C1.72403 14.4505 1.12086 13.5457 0.672487 12.4941C0.224112 11.4425 -9.0817e-05 10.3413 -0.000122067 9.19054C-0.000153317 8.03975 0.22405 6.93857 0.672487 5.88697C1.12092 4.83538 1.7241 3.93061 2.482 3.17268C3.23991 2.41474 4.14468 1.81157 5.1963 1.36316C6.24793 0.914755 7.34911 0.690552 8.49986 0.690552C9.65061 0.690552 10.7518 0.914755 11.8034 1.36316C12.8551 1.81157 13.7598 2.41474 14.5177 3.17268C15.2756 3.93061 15.8788 4.83538 16.3272 5.88697C16.7757 6.93857 16.9999 8.03975 16.9998 9.19054C16.9998 10.3731 16.7697 11.4921 16.3094 12.5477C15.8491 13.6032 15.2102 14.5239 14.3927 15.3096L14.3928 15.3096ZM8.49996 16.6905C9.85708 16.6905 11.1111 16.3552 12.2619 15.6845C13.4127 15.0138 14.3234 14.1031 14.994 12.9523C15.6646 11.8016 16 10.5476 16 9.19044C16 7.83329 15.6647 6.57932 14.994 5.42854C14.3233 4.27775 13.4126 3.36705 12.2619 2.69643C11.1111 2.0258 9.85714 1.69049 8.49996 1.69049C7.14277 1.69049 5.8888 2.0258 4.73805 2.69643C3.5873 3.36705 2.6766 4.27775 2.00594 5.42854C1.33528 6.57932 0.999972 7.83329 1 9.19044C1.00003 10.5476 1.33535 11.8016 2.00594 12.9523C2.67653 14.1031 3.58724 15.0138 4.73805 15.6845C5.88886 16.3552 7.14283 16.6905 8.49996 16.6905Z" fill="#B3B3B3"/>
</svg>
